# xmcd CD database file
#
# Track frame offsets:
#	150
#	9455
#	21691
#	28984
#	49626
#	70622
#	84020
#	92689
#	110555
#	127135
#	137017
#	157619
#
# Disc length: 2369 seconds
#
# Revision: 0
# Processed by: cddbd v1.5.2PL0 Copyright (c) Steve Scherf et al.
# Submitted via: CDex 1.51
#
DISCID=93093f0c
DTITLE=Ancient VVisdom - Deathlike
DYEAR=2013
DGENRE=Doom Metal
TTITLE0=The Beginning
TTITLE1=Let The End Begin
TTITLE2=Life On Earth?
TTITLE3=Deathlike
TTITLE4=Far Beyond Good and Evil
TTITLE5=I Am Rebirth
TTITLE6=Look Alive
TTITLE7=Waiting To Die
TTITLE8=Death Or Victory
TTITLE9=The Last Man On Earth
TTITLE10=Never Live Again
TTITLE11=Here Is The Grave
EXTD=YEAR: 2013
EXTT0=
EXTT1=
EXTT2=
EXTT3=
EXTT4=
EXTT5=
EXTT6=
EXTT7=
EXTT8=
EXTT9=
EXTT10=
EXTT11=
PLAYORDER=
